<svg width="113" height="112" viewBox="0 0 113 112" fill="none" xmlns="http://www.w3.org/2000/svg">
<path d="M69.2677 10.6775C64.6697 8.01636 59.2 7.31224 54.078 8.68468L16.3446 18.7953C5.64603 21.662 -0.669356 32.6061 2.18606 43.2627L10.2713 73.4372C13.1267 84.0937 24.1063 90.4037 34.7666 87.5473L72.5 77.4367C83.1604 74.5802 89.5178 63.6248 86.6624 52.9683L78.5772 22.7938C77.2057 17.6756 73.8675 13.33 69.2677 10.6775Z" fill="url(#paint0_linear)"/>
<g filter="url(#filter0_f)">
<path d="M58.8164 20.6014C55.9153 18.8226 52.4842 18.3174 49.2878 19.1739L25.7397 25.4835C19.0632 27.2725 15.1971 34.3829 17.0719 41.3797L22.3804 61.1913C24.2552 68.188 31.1823 72.4064 37.8351 70.6238L61.3831 64.3142C68.0358 62.5316 71.9281 55.4141 70.0533 48.4174L64.7448 28.6058C63.8444 25.2453 61.7185 22.3745 58.8164 20.6014Z" fill="#2CC0B6" fill-opacity="0.5"/>
</g>
<g filter="url(#filter1_b)">
<mask id="path-3-inside-1" fill="white">
<path d="M104.695 31.7065C100.506 27.5091 94.8126 25.1699 88.894 25.1699H45.2918C32.9293 25.1699 22.9589 35.1447 22.9589 47.4587V82.3263C22.9589 94.6403 32.9734 104.615 45.2918 104.615H88.894C101.212 104.615 111.231 94.6403 111.231 82.3263V47.4587C111.231 41.5444 108.888 35.895 104.695 31.7065Z"/>
</mask>
<path d="M104.695 31.7065C100.506 27.5091 94.8126 25.1699 88.894 25.1699H45.2918C32.9293 25.1699 22.9589 35.1447 22.9589 47.4587V82.3263C22.9589 94.6403 32.9734 104.615 45.2918 104.615H88.894C101.212 104.615 111.231 94.6403 111.231 82.3263V47.4587C111.231 41.5444 108.888 35.895 104.695 31.7065Z" fill="#94E0DB" fill-opacity="0.35"/>
<path d="M103.987 32.4129C104.377 32.8038 105.01 32.8045 105.401 32.4143C105.792 32.0242 105.793 31.3911 105.403 31.0001L103.987 32.4129ZM105.401 30.999C105.011 30.6087 104.378 30.609 103.987 30.9998C103.597 31.3905 103.597 32.0236 103.988 32.414L105.401 30.999ZM105.403 31.0001C101.025 26.6131 95.0759 24.1699 88.894 24.1699V26.1699C94.5494 26.1699 99.9876 28.4051 103.987 32.4129L105.403 31.0001ZM88.894 24.1699H45.2918V26.1699H88.894V24.1699ZM45.2918 24.1699C32.3782 24.1699 21.9589 34.5913 21.9589 47.4587H23.9589C23.9589 35.6981 33.4804 26.1699 45.2918 26.1699V24.1699ZM21.9589 47.4587V82.3263H23.9589V47.4587H21.9589ZM21.9589 82.3263C21.9589 95.195 32.4236 105.615 45.2918 105.615V103.615C33.5233 103.615 23.9589 94.0855 23.9589 82.3263H21.9589ZM45.2918 105.615H88.894V103.615H45.2918V105.615ZM88.894 105.615C101.762 105.615 112.231 95.1952 112.231 82.3263H110.231C110.231 94.0853 100.663 103.615 88.894 103.615V105.615ZM112.231 82.3263V47.4587H110.231V82.3263H112.231ZM112.231 47.4587C112.231 41.2785 109.782 35.3747 105.401 30.999L103.988 32.414C107.993 36.4153 110.231 41.8103 110.231 47.4587H112.231Z" fill="url(#paint1_linear)" mask="url(#path-3-inside-1)"/>
</g>
<g filter="url(#filter2_bd)">
<mask id="path-5-inside-2" fill="white">
<path d="M96.2693 53.6818L95.9162 54.0349L76.0064 69.968C73.5392 71.91 70.4894 72.9693 67.3601 72.9693C64.222 72.9693 61.2252 71.91 58.7536 69.968L38.6716 54.2997L38.0934 53.7259C37.0827 52.4018 37.2151 50.504 38.4068 49.3123C39.5499 48.1206 41.4478 47.9882 42.8204 49.0033L62.6817 64.8924C65.2813 67.0153 68.949 67.0153 71.5089 64.8924L91.4099 49.0033C92.0764 48.3854 92.9591 48.0721 93.886 48.1206C94.7643 48.2089 95.6073 48.6105 96.2208 49.2682C97.3242 50.5481 97.3242 52.4018 96.2693 53.6818Z"/>
</mask>
<path d="M96.2693 53.6818L95.9162 54.0349L76.0064 69.968C73.5392 71.91 70.4894 72.9693 67.3601 72.9693C64.222 72.9693 61.2252 71.91 58.7536 69.968L38.6716 54.2997L38.0934 53.7259C37.0827 52.4018 37.2151 50.504 38.4068 49.3123C39.5499 48.1206 41.4478 47.9882 42.8204 49.0033L62.6817 64.8924C65.2813 67.0153 68.949 67.0153 71.5089 64.8924L91.4099 49.0033C92.0764 48.3854 92.9591 48.0721 93.886 48.1206C94.7643 48.2089 95.6073 48.6105 96.2208 49.2682C97.3242 50.5481 97.3242 52.4018 96.2693 53.6818Z" fill="url(#paint2_linear)"/>
<path d="M95.9162 54.0349L96.0412 54.191L96.0498 54.1841L96.0577 54.1763L95.9162 54.0349ZM76.0064 69.968L76.1301 70.1252L76.1314 70.1242L76.0064 69.968ZM58.7536 69.968L58.8771 69.8108L58.8766 69.8103L58.7536 69.968ZM38.6716 54.2997L38.5307 54.4417L38.5392 54.45L38.5486 54.4574L38.6716 54.2997ZM38.0934 53.7259L37.9345 53.8473L37.9428 53.8582L37.9526 53.8679L38.0934 53.7259ZM38.4068 49.3123L38.5483 49.4538L38.5511 49.4508L38.4068 49.3123ZM42.8204 49.0033L42.9454 48.8471L42.9393 48.8425L42.8204 49.0033ZM62.6817 64.8924L62.8082 64.7375L62.8066 64.7362L62.6817 64.8924ZM71.5089 64.8924L71.3841 64.736L71.3813 64.7384L71.5089 64.8924ZM91.4099 49.0033L91.5347 49.1596L91.5405 49.155L91.5459 49.15L91.4099 49.0033ZM93.886 48.1206L93.906 47.9214L93.8964 47.9209L93.886 48.1206ZM96.2208 49.2682L96.3724 49.1375L96.367 49.1317L96.2208 49.2682ZM96.1279 53.5404L95.7748 53.8935L96.0577 54.1763L96.4107 53.8232L96.1279 53.5404ZM95.7913 53.8787L75.8814 69.8119L76.1314 70.1242L96.0412 54.191L95.7913 53.8787ZM75.8827 69.8109C73.4506 71.7252 70.4443 72.7693 67.3601 72.7693V73.1693C70.5345 73.1693 73.6278 72.0948 76.1301 70.1252L75.8827 69.8109ZM67.3601 72.7693C64.2679 72.7693 61.3143 71.7257 58.8771 69.8108L58.63 70.1253C61.1361 72.0943 64.1762 73.1693 67.3601 73.1693V72.7693ZM58.8766 69.8103L38.7946 54.142L38.5486 54.4574L58.6305 70.1257L58.8766 69.8103ZM38.8125 54.1577L38.2343 53.584L37.9526 53.8679L38.5307 54.4417L38.8125 54.1577ZM38.2524 53.6046C37.3033 52.3612 37.4264 50.5755 38.5482 49.4537L38.2654 49.1709C37.0038 50.4324 36.8621 52.4425 37.9345 53.8473L38.2524 53.6046ZM38.5511 49.4508C39.621 48.3355 41.4055 48.2057 42.7015 49.1642L42.9393 48.8425C41.4901 47.7708 39.4789 47.9058 38.2625 49.1739L38.5511 49.4508ZM42.6955 49.1595L62.5568 65.0485L62.8066 64.7362L42.9454 48.8472L42.6955 49.1595ZM62.5552 65.0473C65.2279 67.2299 69.0021 67.2311 71.6366 65.0463L71.3813 64.7384C68.896 66.7995 65.3348 66.8008 62.8082 64.7375L62.5552 65.0473ZM71.6337 65.0487L91.5347 49.1596L91.2851 48.8471L71.3841 64.7361L71.6337 65.0487ZM91.5459 49.15C92.1716 48.5699 93.001 48.2745 93.8755 48.3204L93.8964 47.9209C92.9172 47.8696 91.9812 48.2009 91.2739 48.8567L91.5459 49.15ZM93.866 48.3196C94.6979 48.4032 95.4954 48.7838 96.0745 49.4046L96.367 49.1317C95.7192 48.4373 94.8307 48.0146 93.906 47.9216L93.866 48.3196ZM96.0693 49.3988C97.1083 50.6041 97.1086 52.3489 96.115 53.5546L96.4237 53.809C97.5397 52.4548 97.54 50.4922 96.3723 49.1376L96.0693 49.3988Z" fill="url(#paint3_linear)" fill-opacity="0.5" mask="url(#path-5-inside-2)"/>
</g>
<defs>
<filter id="filter0_f" x="0.599106" y="2.76709" width="85.9251" height="84.2652" filterUnits="userSpaceOnUse" color-interpolation-filters="sRGB">
<feFlood flood-opacity="0" result="BackgroundImageFix"/>
<feBlend mode="normal" in="SourceGraphic" in2="BackgroundImageFix" result="shape"/>
<feGaussianBlur stdDeviation="8" result="effect1_foregroundBlur"/>
</filter>
<filter id="filter1_b" x="-1.04108" y="1.16992" width="136.272" height="127.445" filterUnits="userSpaceOnUse" color-interpolation-filters="sRGB">
<feFlood flood-opacity="0" result="BackgroundImageFix"/>
<feGaussianBlur in="BackgroundImage" stdDeviation="12"/>
<feComposite in2="SourceAlpha" operator="in" result="effect1_backgroundBlur"/>
<feBlend mode="normal" in="SourceGraphic" in2="effect1_backgroundBlur" result="shape"/>
</filter>
<filter id="filter2_bd" x="22.4158" y="33.1157" width="89.6387" height="54.8536" filterUnits="userSpaceOnUse" color-interpolation-filters="sRGB">
<feFlood flood-opacity="0" result="BackgroundImageFix"/>
<feGaussianBlur in="BackgroundImage" stdDeviation="7.5"/>
<feComposite in2="SourceAlpha" operator="in" result="effect1_backgroundBlur"/>
<feColorMatrix in="SourceAlpha" type="matrix" values="0 0 0 0 0 0 0 0 0 0 0 0 0 0 0 0 0 0 127 0" result="hardAlpha"/>
<feOffset dx="5" dy="5"/>
<feGaussianBlur stdDeviation="5"/>
<feColorMatrix type="matrix" values="0 0 0 0 0.172549 0 0 0 0 0.752941 0 0 0 0 0.713726 0 0 0 0.25 0"/>
<feBlend mode="normal" in2="effect1_backgroundBlur" result="effect2_dropShadow"/>
<feBlend mode="normal" in="SourceGraphic" in2="effect2_dropShadow" result="shape"/>
</filter>
<linearGradient id="paint0_linear" x1="62.2665" y1="7.98381" x2="-3.44936" y2="79.1504" gradientUnits="userSpaceOnUse">
<stop stop-color="#5CDDB7"/>
<stop offset="1" stop-color="#00A3AD"/>
</linearGradient>
<linearGradient id="paint1_linear" x1="33.904" y1="33.2649" x2="83.5168" y2="98.3333" gradientUnits="userSpaceOnUse">
<stop stop-color="white" stop-opacity="0.25"/>
<stop offset="1" stop-color="#94E0DB" stop-opacity="0.2"/>
</linearGradient>
<linearGradient id="paint2_linear" x1="92.8262" y1="52.6038" x2="26.7282" y2="57.7751" gradientUnits="userSpaceOnUse">
<stop stop-color="white"/>
<stop offset="1" stop-color="white" stop-opacity="0.5"/>
</linearGradient>
<linearGradient id="paint3_linear" x1="45.5779" y1="53.3017" x2="65.5884" y2="77.5853" gradientUnits="userSpaceOnUse">
<stop stop-color="white"/>
<stop offset="1" stop-color="white" stop-opacity="0"/>
</linearGradient>
</defs>
</svg>
