<svg width="24" height="24" viewBox="0 0 24 24" fill="none" xmlns="http://www.w3.org/2000/svg">
<path fill-rule="evenodd" clip-rule="evenodd" d="M20.1994 4.20711C20.59 3.81658 20.59 3.18342 20.1994 2.79289C19.8089 2.40237 19.1757 2.40237 18.7852 2.79289L16.2784 5.29974C14.9519 4.78336 13.5092 4.50001 12 4.50001C7 4.50001 2.73 7.61001 1 12C1.76809 13.9491 3.03687 15.6459 4.64794 16.9302L1.78522 19.7929C1.39469 20.1834 1.39469 20.8166 1.78522 21.2071C2.17574 21.5976 2.8089 21.5976 3.19943 21.2071L20.1994 4.20711ZM7.46682 14.1113L9.04668 12.5314C9.016 12.359 9 12.1814 9 12C9 10.34 10.34 9.00001 12 9.00001C12.1814 9.00001 12.359 9.01601 12.5314 9.04669L14.1113 7.46683C13.4698 7.16732 12.7543 7.00001 12 7.00001C9.24 7.00001 7 9.24001 7 12C7 12.7543 7.16731 13.4698 7.46682 14.1113Z" fill="#9F9FA7"/>
<path d="M14.8912 11.1948L11.1948 14.8912C11.4509 14.9621 11.7209 15 12 15C13.66 15 15 13.66 15 12C15 11.7209 14.9621 11.4509 14.8912 11.1948Z" fill="#9F9FA7"/>
<path d="M12 17C11.1566 17 10.3617 16.7908 9.66447 16.4215L7.48205 18.604C8.87365 19.1813 10.3994 19.5 12 19.5C17 19.5 21.27 16.39 23 12C22.2022 9.97547 20.8641 8.22316 19.1634 6.92257L16.4215 9.66448C16.7908 10.3617 17 11.1566 17 12C17 14.76 14.76 17 12 17Z" fill="#9F9FA7"/>
</svg>
