<svg width="57" height="56" viewBox="0 0 57 56" fill="none" xmlns="http://www.w3.org/2000/svg">
<circle cx="28.5" cy="28" r="28" fill="white"/>
<path d="M21.7434 25.7019C21.0378 25.8304 20.35 26.0428 19.6948 26.3348C19.0373 26.6314 18.4168 27.004 17.8461 27.4452C17.3041 26.8617 16.8513 26.2013 16.5025 25.4854C16.1471 24.7689 15.893 24.0066 15.7475 23.2202C16.3919 22.7749 17.0942 22.42 17.835 22.1654C18.6047 21.9005 19.4089 21.749 20.2222 21.7157C20.3109 22.4218 20.4823 23.1149 20.733 23.781C20.9885 24.4608 21.328 25.1061 21.7434 25.7019Z" fill="#016A70"/>
<path d="M25.7074 21.7379L25.7087 21.7311L25.7185 21.7379H25.7074Z" fill="#016A70"/>
<path d="M25.7087 21.7311C24.5235 20.9155 23.1599 20.3962 21.7323 20.2167C21.7629 19.4207 21.9088 18.6335 22.1654 17.8794C22.4213 17.1233 22.78 16.4059 23.2313 15.7475C24.8129 16.029 26.2808 16.7572 27.4618 17.8461C27.0219 18.4076 26.6492 19.0188 26.3514 19.6671C26.054 20.3263 25.8381 21.0195 25.7087 21.7311Z" fill="#016A70"/>
<path d="M36.861 20.1501C37.6373 20.1791 38.4072 20.3022 39.1539 20.5165C39.9456 20.7422 40.7078 21.0609 41.4246 21.4658C41.4173 20.6364 41.3016 19.8114 41.0804 19.0119C40.8717 18.253 40.5716 17.5222 40.1866 16.8356C39.5004 16.4484 38.7696 16.1464 38.0103 15.9362C37.2089 15.7151 36.3821 15.5994 35.5508 15.592C35.9563 16.3073 36.2768 17.0675 36.5057 17.8572C36.7133 18.605 36.8325 19.3745 36.861 20.1501Z" fill="#016A70"/>
<path d="M28.5333 16.6857C29.0975 16.1647 29.7197 15.7101 30.3876 15.3311C31.1071 14.9333 31.8712 14.6221 32.6639 14.4039C31.5028 13.2645 30.0723 12.4375 28.5056 12C27.7469 12.2096 27.0176 12.5136 26.3348 12.9049C25.6115 13.3137 24.9451 13.8158 24.3528 14.3984C25.1453 14.6194 25.9093 14.9325 26.629 15.3311C27.3041 15.7097 27.9337 16.1642 28.5056 16.6857H28.5333Z" fill="#016A70"/>
<path d="M17.8738 29.5659L17.8622 29.5786L17.8461 29.5659H17.8738Z" fill="#016A70"/>
<path d="M17.8622 29.5786C18.4189 30.0152 19.0246 30.3854 19.6671 30.6819C20.3266 30.9851 21.0227 31.2016 21.7379 31.3259C21.3323 31.917 20.9987 32.5544 20.7441 33.2246C20.4859 33.8989 20.3089 34.6015 20.2167 35.3176C19.429 35.2772 18.6512 35.1239 17.9071 34.8624C17.1508 34.6045 16.4335 34.244 15.7752 33.7909C15.9147 33.0208 16.1595 32.2736 16.5025 31.5702C16.8567 30.8438 17.3147 30.1729 17.8622 29.5786Z" fill="#016A70"/>
<path d="M20.1778 20.1279C20.2073 19.3516 20.3304 18.5817 20.5442 17.835C20.7714 17.0455 21.09 16.2853 21.4936 15.5698C19.8584 15.5879 18.255 16.0236 16.8356 16.8356C16.0359 18.2489 15.608 19.8421 15.592 21.4658C16.3075 21.0623 17.0677 20.7437 17.8572 20.5165C18.604 20.3026 19.3738 20.1796 20.1501 20.1501L20.1778 20.1279Z" fill="#016A70"/>
<path d="M29.6159 17.8239C30.0553 18.3958 30.4278 19.0161 30.7263 19.6726C31.0201 20.3276 31.2344 21.0153 31.3647 21.7212C31.9605 21.3058 32.6058 20.9663 33.2857 20.7108C33.9419 20.4702 34.6238 20.3063 35.3176 20.2222C35.2788 19.4095 35.1275 18.6061 34.8679 17.835C34.6114 17.094 34.2546 16.3917 33.8075 15.7475C33.0212 15.893 32.2588 16.1471 31.5424 16.5025C30.8224 16.85 30.1581 17.3028 29.5715 17.8461L29.6159 17.8239Z" fill="#016A70"/>
<path d="M41.308 23.198C40.6496 22.7467 39.9323 22.388 39.1761 22.1321C38.4221 21.8755 37.6348 21.7296 36.8388 21.699C36.7458 22.4126 36.5707 23.1131 36.317 23.7865C36.0605 24.4569 35.725 25.0943 35.3176 25.6852C36.0316 25.8145 36.7271 26.0308 37.3885 26.3292C38.0378 26.6282 38.6507 27.0008 39.215 27.4396C39.7619 26.8388 40.2216 26.1641 40.5808 25.4354C40.9105 24.7325 41.1404 23.9868 41.2636 23.2202L41.308 23.198Z" fill="#016A70"/>
<path d="M35.2732 31.3148C35.6891 31.9094 36.0268 32.555 36.2781 33.2357C36.5293 33.9076 36.7025 34.6062 36.7944 35.3176C37.6155 35.276 38.4266 35.119 39.2039 34.8513C39.9453 34.5958 40.6478 34.239 41.2914 33.7909C41.1478 33.0047 40.8956 32.2424 40.5419 31.5257C40.1891 30.8125 39.7346 30.1542 39.1928 29.5715C38.6209 30.0108 38.0006 30.3834 37.344 30.6819C36.6819 30.9759 35.9866 31.1884 35.2732 31.3148Z" fill="#016A70"/>
<path d="M15.3311 26.629C14.9344 25.909 14.6232 25.1451 14.4039 24.3528C13.8214 24.9451 13.3193 25.6115 12.9105 26.3348C12.5172 27.0174 12.2113 27.7467 12 28.5056C12.2105 29.2656 12.5145 29.9966 12.9049 30.6819C13.3124 31.4043 13.8147 32.069 14.3984 32.6583C14.6193 31.8675 14.9323 31.1054 15.3311 30.3876C15.7101 29.7097 16.1665 29.0781 16.6913 28.5056C16.1678 27.9339 15.7115 27.3044 15.3311 26.629Z" fill="#016A70"/>
<path d="M42.6238 24.3528L42.6201 24.3661L42.6072 24.3528H42.6238Z" fill="#016A70"/>
<path d="M42.6201 24.3661C43.7449 25.5267 44.5629 26.9493 45 28.5056C44.7895 29.2656 44.4855 29.9966 44.0951 30.6819C43.6896 31.4042 43.1891 32.0689 42.6072 32.6583C42.3862 31.8675 42.0731 31.1054 41.6745 30.3876C41.2993 29.7073 40.8425 29.0752 40.3143 28.5056C40.847 27.9377 41.3093 27.3077 41.6911 26.629C42.0875 25.9133 42.3992 25.1539 42.6201 24.3661Z" fill="#016A70"/>
<path d="M36.861 36.8666C36.8315 37.641 36.7085 38.409 36.4946 39.1539C36.2713 39.9465 35.9525 40.709 35.5453 41.4246C36.3765 41.4173 37.2033 41.3015 38.0047 41.0804C38.763 40.8697 39.4935 40.5696 40.181 40.1866C40.5641 39.4991 40.8641 38.7685 41.0749 38.0103C41.2983 37.2073 41.4159 36.3787 41.4246 35.5453C40.7098 35.9515 39.9495 36.2721 39.1595 36.5002C38.4098 36.7095 37.6387 36.8325 36.861 36.8666Z" fill="#016A70"/>
<path d="M28.5056 40.3143C27.9368 40.8412 27.3068 41.2979 26.629 41.6745C25.9102 42.0737 25.146 42.3849 24.3528 42.6016C24.9437 43.1858 25.6103 43.6881 26.3348 44.0951C27.0176 44.4864 27.7469 44.7904 28.5056 45C29.2656 44.7895 29.9966 44.4855 30.6819 44.0951C31.4064 43.6881 32.073 43.1858 32.6639 42.6016C31.8703 42.386 31.106 42.0746 30.3876 41.6745C29.7073 41.2993 29.0752 40.8425 28.5056 40.3143Z" fill="#016A70"/>
<path d="M27.4452 39.1539C27.004 38.5832 26.6314 37.9627 26.3348 37.3052C26.0436 36.6516 25.8311 35.9658 25.7019 35.2621C25.1073 35.678 24.4617 36.0157 23.781 36.267C23.1144 36.5169 22.4215 36.6902 21.7157 36.7833C21.7458 37.6079 21.8973 38.4235 22.1654 39.2039C22.42 39.9446 22.7749 40.647 23.2202 41.2914C24.0064 41.1478 24.7687 40.8956 25.4854 40.5419C26.202 40.1806 26.8622 39.7168 27.4452 39.165V39.1539Z" fill="#016A70"/>
<path d="M31.3314 35.2677L31.3276 35.2895L31.3037 35.2732L31.3314 35.2677Z" fill="#016A70"/>
<path d="M31.3276 35.2895C31.2027 35.997 30.9876 36.6857 30.6874 37.3385C30.3887 37.988 30.0161 38.6009 29.5771 39.165C30.1759 39.7144 30.851 40.1744 31.5813 40.5308C32.2847 40.8738 33.0319 41.1186 33.802 41.2581C34.2562 40.6005 34.6168 39.883 34.8735 39.1262C35.1366 38.3753 35.2863 37.5894 35.3176 36.7944C34.6042 36.7006 33.9038 36.5255 33.2301 36.2725C32.5592 36.0215 31.9205 35.6914 31.3276 35.2895Z" fill="#016A70"/>
<path d="M20.1501 36.8666C19.3744 36.8316 18.6051 36.7087 17.8572 36.5002C17.0675 36.2712 16.3073 35.9508 15.592 35.5453C15.5994 36.3765 15.7151 37.2033 15.9362 38.0047C16.1464 38.764 16.4484 39.4949 16.8356 40.181C17.5222 40.566 18.253 40.8662 19.0119 41.0749C19.8114 41.296 20.6364 41.4117 21.4658 41.4191C21.0613 40.7041 20.7426 39.9437 20.5165 39.1539C20.3026 38.409 20.1796 37.641 20.1501 36.8666Z" fill="#016A70"/>
</svg>
