<svg width="40" height="40" viewBox="0 0 40 40" fill="none" xmlns="http://www.w3.org/2000/svg">
<path fill-rule="evenodd" clip-rule="evenodd" d="M39.2 20.4547C39.2 19.0365 39.0727 17.6729 38.8364 16.3638H20V24.1001H30.7636C30.3 26.6001 28.8909 28.7183 26.7727 30.1365V35.1547H33.2364C37.0182 31.6729 39.2 26.5456 39.2 20.4547Z" fill="#4285F4"/>
<path fill-rule="evenodd" clip-rule="evenodd" d="M19.9999 39.9998C25.3999 39.9998 29.9272 38.2089 33.2363 35.1544L26.7726 30.1362C24.9817 31.3362 22.6908 32.0453 19.9999 32.0453C14.7908 32.0453 10.3817 28.5271 8.80901 23.7998H2.1272V28.9816C5.41811 35.518 12.1817 39.9998 19.9999 39.9998Z" fill="#34A853"/>
<path fill-rule="evenodd" clip-rule="evenodd" d="M8.80909 23.7999C8.40909 22.5999 8.18182 21.3181 8.18182 19.9999C8.18182 18.6817 8.40909 17.3999 8.80909 16.1999V11.0181H2.12727C0.772727 13.7181 0 16.7726 0 19.9999C0 23.2272 0.772727 26.2817 2.12727 28.9817L8.80909 23.7999Z" fill="#FBBC05"/>
<path fill-rule="evenodd" clip-rule="evenodd" d="M19.9999 7.95455C22.9363 7.95455 25.5727 8.96364 27.6454 10.9455L33.3817 5.20909C29.9181 1.98182 25.3908 0 19.9999 0C12.1817 0 5.41811 4.48182 2.1272 11.0182L8.80901 16.2C10.3817 11.4727 14.7908 7.95455 19.9999 7.95455Z" fill="#EA4335"/>
</svg>
